<svg width="200" height="200" fill="none" xmlns="http://www.w3.org/2000/svg">
  <g clip-path="url(#a)">
    <path fill-rule="evenodd" clip-rule="evenodd" d="m115.295 1.3 38.233 45.326 8.918 83.757L94.962 201.3l-78.516-71.15L55.981 29.557 115.295 1.3ZM59.409 37.28l31.536 33.314-32.25 46.776-33.8 7.73 34.514-87.82Zm-33.093 93.683 59.936 54.314-27.488-61.734-32.448 7.42Zm39.03-7.428 30.38 68.226 57.119-60.025-87.499-8.201Zm90.131-1.812-7.409-69.574-47.692 19.157 55.101 50.417Zm-59.894-54.99 50.064-20.11-31.953-37.881-50.315 23.97 32.204 34.02Zm-.26 8.115 55.325 50.622-84.75-7.943 29.425-42.679Z" fill="url(#b)"/>
  </g>
  <defs>
    <linearGradient id="b" x1="89.446" y1="1.3" x2="89.446" y2="201.3" gradientUnits="userSpaceOnUse">
      <stop stop-color="#FFAABB"/>
      <stop offset="1" stop-color="#0B99FF"/>
    </linearGradient>
    <clipPath id="a">
      <path fill="#fff" d="M0 0h200v200H0z"/>
    </clipPath>
  </defs>
</svg>