<svg xmlns="http://www.w3.org/2000/svg" xmlns:xlink="http://www.w3.org/1999/xlink" fill="none" version="1.1" width="25" height="17.90185546875" viewBox="0 0 25 17.90185546875">
  <g transform="matrix(1,0,0,-1,0,35.8037109375)">
    <g>
      <path d="M20.8594,35.56365546875Q22.7734,34.00115546875,23.8672,31.774655468749998Q24.9609,29.508955468750003,25,26.85274546875Q24.9609,24.19649546875,23.8672,21.93087546875Q22.7734,19.70431546875,20.8594,18.10274846875Q20.1172,17.63399846875,19.5312,18.25899846875Q19.0625,18.96212546875,19.6484,19.58712546875Q21.25,20.876185468750002,22.1875,22.751185468750002Q23.125,24.626185468750002,23.125,26.85274546875Q23.125,29.079355468750002,22.1875,30.954355468750002Q21.25,32.82935546875,19.6484,34.118355468749996Q19.0625,34.743355468749996,19.5312,35.44645546875Q20.1172,36.07145546875,20.8594,35.602755468750004L20.8594,35.56365546875ZM18.4766,32.67305546875Q19.7656,31.61835546875,20.5078,30.133955468750003Q21.25,28.61055546875,21.25,26.85274546875Q21.25,25.094935468750002,20.5078,23.57149546875Q19.7656,22.08712546875,18.4766,21.032435468750002Q17.7734,20.563685468750002,17.1484,21.14962546875Q16.6797,21.89181546875,17.3047,22.47774546875Q19.2969,24.11837546875,19.375,26.85274546875Q19.2969,29.587155468749998,17.3047,31.22775546875Q16.6797,31.81365546875,17.1484,32.555855468749996Q17.7734,33.14185546875,18.4766,32.67305546875ZM16.1328,29.74335546875Q17.4219,28.68865546875,17.5,26.85274546875Q17.4219,25.01680546875,16.1328,23.92305546875Q15.3906,23.45430546875,14.8047,24.07930546875Q14.3359,24.782435468750002,14.9219,25.407435468750002Q15.5859,25.95430546875,15.625,26.85274546875Q15.5859,27.751185468750002,14.9219,28.29805546875Q14.3359,28.92305546875,14.8047,29.62615546875Q15.3906,30.25115546875,16.1328,29.78245546875L16.1328,29.74335546875ZM11.7578,35.48555546875Q12.4609,35.13395546875,12.5,34.352755468750004L12.5,19.35274546875Q12.4609,18.57149846875,11.7578,18.21993546875Q11.0156,17.90743580875,10.4297,18.41524846875L5.15625,23.10274546875L2.5,23.10274546875Q1.44531,23.14180546875,0.742188,23.844935468750002Q0.0390625,24.54805546875,0,25.60274546875L0,28.10275546875Q0.0390625,29.15745546875,0.742188,29.86055546875Q1.44531,30.56365546875,2.5,30.60275546875L5.15625,30.60275546875L10.4297,35.290255468750004Q11.0156,35.79805546875,11.7578,35.48555546875Z" fill="#FFFFFF" fill-opacity="1" style="mix-blend-mode:passthrough"/>
    </g>
  </g>
</svg>