<svg xmlns="http://www.w3.org/2000/svg" xmlns:xlink="http://www.w3.org/1999/xlink" fill="none" version="1.1" width="20" height="17.5" viewBox="0 0 20 17.5">
  <g transform="matrix(1,0,0,-1,0,35)">
    <g>
      <path d="M2.5,33.75Q2.5,34.2969,2.14844,34.648399999999995Q1.79688,35,1.25,35Q0.703125,35,0.351562,34.648399999999995Q0,34.2969,0,33.75L0,20.625Q0.0390625,19.29688,0.898438,18.398438Q1.79688,17.5390625,3.125,17.5L18.75,17.5Q19.2969,17.5,19.6484,17.851562Q20,18.203125,20,18.75Q20,19.29688,19.6484,19.64844Q19.2969,20,18.75,20L3.125,20Q2.53906,20.03906,2.5,20.625L2.5,33.75ZM18.3984,30.351599999999998Q18.75,30.7422,18.75,31.25Q18.75,31.7578,18.3984,32.1484Q18.0078,32.5,17.5,32.5Q16.9922,32.5,16.6016,32.1484L12.5,28.0078L10.2734,30.273400000000002Q9.88281,30.625,9.375,30.625Q8.86719,30.625,8.47656,30.273400000000002L4.10156,25.89844Q3.75,25.50781,3.75,25Q3.75,24.49219,4.10156,24.10156Q4.49219,23.75,5,23.75Q5.50781,23.75,5.89844,24.10156L9.375,27.6172L11.6016,25.35156Q11.9922,25,12.5,25Q13.0078,25,13.3984,25.35156L18.3984,30.351599999999998Z" fill="#FFFFFF" fill-opacity="1" style="mix-blend-mode:passthrough"/>
    </g>
  </g>
</svg>