<svg xmlns="http://www.w3.org/2000/svg" xmlns:xlink="http://www.w3.org/1999/xlink" fill="none" version="1.1" width="20.25" height="18" viewBox="0 0 20.25 18"><defs><clipPath id="master_svg0_4_0847"><rect x="0" y="0" width="20.25" height="18" rx="0"/></clipPath></defs><g clip-path="url(#master_svg0_4_0847)"><g transform="matrix(1,0,0,-1,0,30.0234375)"><g><path d="M16.3125,24.01171875Q16.8398,23.976558750000002,16.875,23.44921875L16.875,17.82421875Q16.8398,17.29687875,16.3125,17.26171875L2.8125,17.26171875Q2.28516,17.29687875,2.25,17.82421875L2.25,23.44921875Q2.28516,23.976558750000002,2.8125,24.01171875L16.3125,24.01171875ZM2.8125,26.26171875Q1.61719,26.22651875,0.808594,25.45311875Q0.0351562,24.64452875,0,23.44921875L0,17.82421875Q0.0351562,16.62890875,0.808594,15.82031275Q1.61719,15.04687495,2.8125,15.01171875L16.3125,15.01171875Q17.5078,15.04687495,18.3164,15.82031275Q19.0898,16.62890875,19.125,17.82421875L19.125,18.38671875Q19.6172,18.38671875,19.9336,18.70312875Q20.25,19.01952875,20.25,19.51171875L20.25,21.76171875Q20.25,22.25390875,19.9336,22.57030875Q19.6172,22.88671875,19.125,22.88671875L19.125,23.44921875Q19.0898,24.64452875,18.3164,25.45311875Q17.5078,26.22651875,16.3125,26.26171875L2.8125,26.26171875ZM15.75,22.88671875L3.375,22.88671875L15.75,22.88671875L3.375,22.88671875L3.375,18.38671875L15.75,18.38671875L15.75,22.88671875Z" fill="#000000" fill-opacity="1" style="mix-blend-mode:passthrough"/></g></g></g></svg>