<svg xmlns="http://www.w3.org/2000/svg" xmlns:xlink="http://www.w3.org/1999/xlink" fill="none" version="1.1" width="22.464111328125" height="20.00390625" viewBox="0 0 22.464111328125 20.00390625"><g transform="matrix(1,0,0,-1,0,40.0078125)"><g><path d="M22.461,30.00390625Q22.422,29.49609625,22.0711,29.14453625Q21.7201,28.79296625,21.2132,28.75390625L19.9653,28.75390625L20.0043,22.50390625Q19.9653,22.34765625,19.9653,22.19140625L19.9653,21.56640625Q19.9653,20.90234425,19.4974,20.47265625Q19.0685,20.00390625,18.4055,20.00390625L17.7816,20.00390625Q17.7036,20.00390625,17.6646,20.00390625Q17.5867,20.00390625,17.5087,20.00390625L16.2218,20.00390625L15.286,20.00390625Q14.623,20.00390625,14.1941,20.47265625Q13.7262,20.90234425,13.7262,21.56640625L13.7262,22.50390625L13.7262,25.00390625Q13.7262,25.55078625,13.3752,25.90234625Q13.0243,26.25390625,12.4783,26.25390625L9.98267,26.25390625Q9.43674,26.25390625,9.08579,25.90234625Q8.73484,25.55078625,8.73484,25.00390625L8.73484,22.50390625L8.73484,21.56640625Q8.73484,20.90234425,8.2669,20.47265625Q7.83795,20.00390625,7.17504,20.00390625L6.23917,20.00390625L4.99133,20.00390625Q4.95234,20.00390625,4.91334,20.00390625Q4.87435,20.00390625,4.83536,20.00390625Q4.75737,20.00390625,4.67938,20.00390625L4.05546,20.00390625Q3.39255,20.00390625,2.9636,20.47265625Q2.49567,20.90234425,2.49567,21.56640625L2.49567,25.94140625Q2.49567,25.98046625,2.49567,26.05859625L2.49567,28.75390625L1.24783,28.75390625Q0.701906,28.79296625,0.350953,29.14453625Q0,29.49609625,0,30.043006249999998Q0,30.55080625,0.389948,30.980506249999998L10.3726,39.69140625Q10.8016,40.043006250000005,11.2305,40.00390625Q11.6984,40.00390625,12.0494,39.730506250000005L22.0321,30.94140625Q22.5,30.55080625,22.461,30.00390625Z" fill="#FFFFFF" fill-opacity="1" style="mix-blend-mode:passthrough"/></g></g></svg>