<svg xmlns="http://www.w3.org/2000/svg" xmlns:xlink="http://www.w3.org/1999/xlink" fill="none" version="1.1" width="20" height="20" viewBox="0 0 20 20"><defs><clipPath id="master_svg0_4_5226"><rect x="0" y="0" width="20" height="20" rx="0"/></clipPath></defs><g clip-path="url(#master_svg0_4_5226)"><g transform="matrix(1,0,0,-1,0,40.859375)"><g><path d="M0,30.4296875Q0.0390625,33.1640875,1.32812,35.4296875Q2.65625,37.6952875,5,39.1015875Q7.38281,40.4296875,10,40.4296875Q12.6172,40.4296875,15,39.1015875Q17.3438,37.6952875,18.6719,35.4296875Q19.9609,33.1640875,20,30.4296875Q19.9609,27.6953075,18.6719,25.4296875Q17.3438,23.1640675,15,21.7578075Q12.6172,20.4296875,10,20.4296875Q7.38281,20.4296875,5,21.7578075Q2.65625,23.1640675,1.32812,25.4296875Q0.0390625,27.6953075,0,30.4296875ZM10,29.1796875Q9.45312,29.1796875,9.10156,29.5312475Q8.75,29.8828075,8.75,30.4296875Q8.75,30.9765875,9.10156,31.328087500000002Q9.45312,31.6796875,10,31.6796875Q10.5469,31.6796875,10.8984,31.328087500000002Q11.25,30.9765875,11.25,30.4296875Q11.25,29.8828075,10.8984,29.5312475Q10.5469,29.1796875,10,29.1796875ZM6.25,30.4296875Q6.25,29.4140675,6.75781,28.5546875Q7.26562,27.6953075,8.125,27.1874975Q9.02344,26.6796875,10,26.6796875Q10.9766,26.6796875,11.875,27.1874975Q12.7344,27.6953075,13.2422,28.5546875Q13.75,29.4140675,13.75,30.4296875Q13.75,31.4452875,13.2422,32.3046875Q12.7344,33.1640875,11.875,33.6718875Q10.9766,34.1796875,10,34.1796875Q9.02344,34.1796875,8.125,33.6718875Q7.26562,33.1640875,6.75781,32.3046875Q6.25,31.4452875,6.25,30.4296875ZM3.75,31.0546875Q3.82812,33.2030875,5.50781,34.9218875Q7.22656,36.6015875,9.375,36.6796875Q9.96094,36.718787500000005,10,37.3046875Q9.96094,37.890587499999995,9.375,37.9296875Q8.04688,37.9296875,6.79688,37.343787500000005Q5.58594,36.7577875,4.64844,35.7812875Q3.67188,34.8437875,3.08594,33.6327875Q2.5,32.3827875,2.5,31.0546875Q2.53906,30.468787499999998,3.125,30.4296875Q3.71094,30.468787499999998,3.75,31.0546875Z" fill="#FFFFFF" fill-opacity="1" style="mix-blend-mode:passthrough"/></g></g></g></svg>