<svg xmlns="http://www.w3.org/2000/svg" xmlns:xlink="http://www.w3.org/1999/xlink" fill="none" version="1.1" width="18.754112243652344" height="19.8828125" viewBox="0 0 18.754112243652344 19.8828125">
  <g transform="matrix(1,0,0,-1,0,39.765625)">
    <path d="M9.37706,39.7656125Q9.65049,39.7656125,9.88487,39.6484125L17.2677,36.5234125Q17.9317,36.2500125,18.3224,35.6640125Q18.7521,35.0781125,18.7521,34.2969125Q18.7911,32.3047125,18.088,29.6093725Q17.3849,26.9140625,15.5489,24.3750025Q13.7521,21.7968725,10.3927,20.1171875Q9.37706,19.6484375,8.36143,20.1171875Q5.00206,21.7968725,3.20518,24.3750025Q1.36924,26.9140625,0.666118,29.6093725Q-0.0370066,32.3047125,0.00205591,34.2969125Q0.00205591,35.0781125,0.431743,35.6640125Q0.822368,36.2500125,1.48643,36.5234125L8.86924,39.6484125Q9.10362,39.7656125,9.37706,39.7656125ZM9.37706,37.1484125L9.37706,22.3828125L9.37706,37.1484125L9.37706,22.3828125Q12.0333,23.7500025,13.5567,25.8593725Q15.0411,27.9687525,15.6661,30.1953125Q16.2521,32.4609125,16.2521,34.2578125L9.37706,37.1484125Z" fill="#FFFFFF" fill-opacity="1" style="mix-blend-mode:passthrough"/>
  </g>
</svg>