<svg xmlns="http://www.w3.org/2000/svg" xmlns:xlink="http://www.w3.org/1999/xlink" fill="none" version="1.1" width="16.875" height="18" viewBox="0 0 16.875 18"><defs><clipPath id="master_svg0_4_0852"><rect x="0" y="0" width="16.875" height="18" rx="0"/></clipPath></defs><g clip-path="url(#master_svg0_4_0852)"><g transform="matrix(1,0,0,-1,0,34.5234375)"><g><path d="M3.12891,26.99999875Q3.55078,28.19531875,4.46484,29.10941875Q6.1875,30.76171875,8.4375,30.76171875Q10.6875,30.76171875,12.4102,29.10941875L13.0078,28.51171875L11.8125,28.51171875Q11.3203,28.51171875,11.0039,28.19531875Q10.6875,27.87891875,10.6875,27.38671875Q10.6875,26.89452875,11.0039,26.578128749999998Q11.3203,26.26171875,11.8125,26.26171875L15.75,26.26171875Q16.2422,26.26171875,16.5586,26.578128749999998Q16.875,26.89452875,16.875,27.38671875L16.875,31.32421875Q16.875,31.81641875,16.5586,32.13281875Q16.2422,32.44921875,15.75,32.44921875Q15.2578,32.44921875,14.9414,32.13281875Q14.625,31.81641875,14.625,31.32421875L14.625,30.09371875L13.9922,30.69141875Q12.4453,32.23831875,10.4414,32.76561875Q8.4375,33.25781875,6.43359,32.76561875Q4.42969,32.23831875,2.88281,30.69141875Q1.58203,29.39061875,1.01953,27.773418749999998Q0.878906,27.31641875,1.05469,26.89452875Q1.26562,26.507808750000002,1.6875,26.33202875Q2.14453,26.19140875,2.56641,26.36718875Q2.95312,26.578128749999998,3.12891,26.99999875ZM0.808594,23.97655875Q0.527344,23.87109875,0.316406,23.66015875Q0.105469,23.44921875,0.0351562,23.16796875Q0.0351562,23.13280875,0,23.06249875Q0,22.95702875,0,22.88671875L0,18.94921875Q0,18.45702875,0.316406,18.14062475Q0.632812,17.82421875,1.125,17.82421875Q1.61719,17.82421875,1.93359,18.14062475Q2.25,18.45702875,2.25,18.94921875L2.25,20.17968875L2.88281,19.58202875Q4.42969,18.03515675,6.43359,17.50781275Q8.4375,17.01562475,10.4414,17.50781275Q12.4453,18.03515675,13.9922,19.58202875Q15.293,20.88280875,15.8555,22.49999875Q15.9961,22.95702875,15.8203,23.37890875Q15.6094,23.76562875,15.1875,23.94140875Q14.7305,24.08202875,14.3086,23.90624875Q13.9219,23.69530875,13.7461,23.27343875Q13.3242,22.11327875,12.4102,21.16405875Q10.6875,19.51171875,8.4375,19.51171875Q6.1875,19.51171875,4.46484,21.16405875L3.86719,21.76171875L5.0625,21.76171875Q5.55469,21.76171875,5.87109,22.07812875Q6.1875,22.39452875,6.1875,22.88671875Q6.1875,23.37890875,5.87109,23.69530875Q5.55469,24.01171875,5.0625,24.01171875L1.125,24.01171875Q1.05469,24.01171875,0.984375,24.01171875Q0.878906,23.97655875,0.808594,23.97655875Z" fill="#000000" fill-opacity="1" style="mix-blend-mode:passthrough"/></g></g></g></svg>