<svg xmlns="http://www.w3.org/2000/svg" xmlns:xlink="http://www.w3.org/1999/xlink" fill="none" version="1.1" width="13.75" height="20" viewBox="0 0 13.75 20"><g transform="matrix(1,0,0,-1,0,40)"><g><path d="M6.875,40Q5.27344,39.960899999999995,4.21875,38.9062Q3.16406,37.851600000000005,3.125,36.25L3.125,30Q3.16406,28.39844,4.21875,27.34375Q5.27344,26.28906,6.875,26.25Q8.47656,26.28906,9.53125,27.34375Q10.5859,28.39844,10.625,30L10.625,36.25Q10.5859,37.851600000000005,9.53125,38.9062Q8.47656,39.960899999999995,6.875,40ZM1.875,31.5625Q1.79688,32.4219,0.9375,32.5Q0.078125,32.4219,0,31.5625L0,30Q0.0390625,27.34375,1.71875,25.46875Q3.35938,23.59375,5.9375,23.20312L5.9375,21.875L4.0625,21.875Q3.20312,21.79688,3.125,20.9375Q3.20312,20.078125,4.0625,20L6.875,20L9.6875,20Q10.5469,20.078125,10.625,20.9375Q10.5469,21.79688,9.6875,21.875L7.8125,21.875L7.8125,23.20312Q10.3906,23.59375,12.0312,25.46875Q13.7109,27.34375,13.75,30L13.75,31.5625Q13.6719,32.4219,12.8125,32.5Q11.9531,32.4219,11.875,31.5625L11.875,30Q11.8359,27.89062,10.4297,26.44531Q8.98438,25.03906,6.875,25Q4.76562,25.03906,3.32031,26.44531Q1.91406,27.89062,1.875,30L1.875,31.5625Z" fill="#FFFFFF" fill-opacity="1" style="mix-blend-mode:passthrough"/></g></g></svg>