<svg xmlns="http://www.w3.org/2000/svg" xmlns:xlink="http://www.w3.org/1999/xlink" fill="none" version="1.1" width="16.5" height="24" viewBox="0 0 16.5 24"><defs><clipPath id="master_svg0_4_5266"><rect x="0" y="0" width="16.5" height="24" rx="0"/></clipPath></defs><g clip-path="url(#master_svg0_4_5266)"><g transform="matrix(1,0,0,-1,0,49.03125)"><g><path d="M0,45.515625Q0.046875,46.781225,0.890625,47.625025Q1.73438,48.468725,3,48.515625L13.5,48.515625Q14.7656,48.468725,15.6094,47.625025Q16.4531,46.781225,16.5,45.515625L16.5,27.515625Q16.4531,26.250005,15.6094,25.40625Q14.7656,24.5625,13.5,24.515625L3,24.515625Q1.73438,24.5625,0.890625,25.40625Q0.046875,26.250005,0,27.515625L0,45.515625ZM9.75,27.515625Q9.75,28.171875,9.32812,28.593745Q8.90625,29.015625,8.25,29.015625Q7.59375,29.015625,7.17188,28.593745Q6.75,28.171875,6.75,27.515625Q6.75,26.859375,7.17188,26.437505Q7.59375,26.015625,8.25,26.015625Q8.90625,26.015625,9.32812,26.437505Q9.75,26.859375,9.75,27.515625ZM13.5,45.515625L3,45.515625L13.5,45.515625L3,45.515625L3,30.515625L13.5,30.515625L13.5,45.515625Z" fill="#FFFFFF" fill-opacity="1" style="mix-blend-mode:passthrough"/></g></g></g></svg>