<svg xmlns="http://www.w3.org/2000/svg" xmlns:xlink="http://www.w3.org/1999/xlink" fill="none" version="1.1" width="16" height="16" viewBox="0 0 16 16">
  <defs>
    <clipPath id="master_svg0_4_5276">
      <rect x="0" y="0" width="16" height="16" rx="0"/>
    </clipPath>
  </defs>
  <g clip-path="url(#master_svg0_4_5276)">
    <g transform="matrix(1,0,0,-1,0,32.6875)">
      <g>
        <path d="M5.13619,31.56255Q4.94942,32.03125,4.54475,32.21875Q4.10895,32.40625,3.64202,32.31255L0.902724,31.56255Q0.0622568,31.24995,0,30.34375Q0.0311284,26.43755,1.89883,23.28125Q3.76654,20.125,6.91051,18.25Q10.0545,16.375,13.9455,16.34375Q14.8482,16.40625,15.1595,17.25L15.9066,20Q16,20.46875,15.8132,20.90625Q15.6265,21.3125,15.1595,21.5L12.1712,22.75Q11.3307,23.03125,10.7393,22.375L9.49416,20.84375Q7.84436,21.625,6.53696,22.90625Q5.2607,24.21875,4.48249,25.875L6.00778,27.12495Q6.66148,27.71875,6.38132,28.56255L5.13619,31.56255Z" fill="#000000" fill-opacity="1" style="mix-blend-mode:passthrough"/>
      </g>
    </g>
  </g>
</svg>