<svg xmlns="http://www.w3.org/2000/svg" xmlns:xlink="http://www.w3.org/1999/xlink" fill="none" version="1.1" width="25" height="17.5" viewBox="0 0 25 17.5"><g transform="matrix(1,0,0,-1,0,35)"><g><path d="M2.10938,28.3203Q4.14062,30.273400000000002,6.79688,31.3672Q9.45312,32.5,12.5,32.5Q15.5469,32.5,18.2031,31.3672Q20.8594,30.273400000000002,22.8906,28.3203Q23.2812,27.9688,23.7891,27.9688Q24.2578,27.9688,24.6484,28.3594Q25,28.75,25,29.2578Q25,29.7656,24.6094,30.1172Q22.2266,32.4219,19.1406,33.710899999999995Q16.0547,34.960899999999995,12.5,35Q8.94531,34.960899999999995,5.85938,33.710899999999995Q2.77344,32.4219,0.390625,30.1172Q0,29.7656,0,29.2578Q0,28.75,0.351562,28.3594Q0.742188,27.9688,1.21094,27.9688Q1.71875,27.9688,2.10938,28.3203ZM12.5,26.25Q15.8984,26.17188,18.2812,24.0625Q18.7109,23.71094,19.1797,23.75Q19.6875,23.78906,20.0391,24.17969Q20.3906,24.57031,20.3516,25.07812Q20.3516,25.58594,19.9609,25.9375Q18.4375,27.26562,16.5625,28.0078Q14.6484,28.75,12.5,28.75Q10.3516,28.75,8.4375,28.0078Q6.5625,27.26562,5.07812,25.9375Q4.6875,25.58594,4.64844,25.07812Q4.60938,24.57031,4.96094,24.17969Q5.3125,23.78906,5.82031,23.75Q6.28906,23.71094,6.71875,24.0625Q9.10156,26.17188,12.5,26.25ZM15,20Q14.9609,21.40625,13.75,22.14844Q12.5,22.85156,11.25,22.14844Q10.0391,21.40625,10,20Q10.0391,18.59375,11.25,17.851562Q12.5,17.148438,13.75,17.851562Q14.9609,18.59375,15,20Z" fill="#FFFFFF" fill-opacity="1" style="mix-blend-mode:passthrough"/></g></g></svg>