<svg height="40" width="40" xmlns="http://www.w3.org/2000/svg">
  <g >
    <g fill="#8bd8bd">
      <path d="M5.195 23.956c0-.71 0-2.787 1.32-4.605 1.263-1.737 3.272-2.65 5.473-2.65 2.72 0 4.66 1.387 6.5 4.603 1.275 2.235 2.877 4.243 5.75 4.243 3.204 0 5.619-2.505 5.619-5.574a5.473 5.473 0 0 0-1.614-3.927 5.66 5.66 0 0 0-1.331-.97 5.357 5.357 0 0 0-1.557-.531c-.655-.123-1.422-.158-2.64-.158H.8a20.023 20.023 0 0 0 4.395 19.058z" fill-rule="nonzero"/>
      <path d="M15.451 23.572c2.337 4.282 5.407 5.811 8.667 5.811 5.439 0 9.603-4.254 9.603-9.354a9.486 9.486 0 0 0-2.832-6.759 9.002 9.002 0 0 0-2.268-1.614 9.665 9.665 0 0 0-2.618-.88c-1.028-.191-2.1-.226-3.443-.226H2.371c-.276.514-.53 1.04-.76 1.58h20.946c1.388 0 2.246.023 3.149.192a8.41 8.41 0 0 1 2.202.734 6.87 6.87 0 0 1 1.875 1.304 7.865 7.865 0 0 1 2.37 5.653c0 4.288-3.397 7.81-8.091 7.81-2.878 0-5.213-1.322-7.516-5.407-1.635-2.91-3.155-3.452-4.61-3.452-1.558 0-2.814.62-3.594 1.76-.845 1.23-.845 2.685-.845 3.273v11.6c.49.396 1 .768 1.534 1.117V23.956c0-.79.09-1.566.531-2.231.496-.756 1.28-1.188 2.362-1.188 1.411 0 2.287.756 3.527 3.035z" fill-rule="nonzero"/>
      <path d="M19.998 0A19.964 19.964 0 0 0 3.79 8.282h18.766c1.456 0 2.63.046 3.894.27 1.122.201 2.209.562 3.227 1.074a11.063 11.063 0 0 1 2.832 2.03 11.848 11.848 0 0 1 3.504 8.395c0 6.353-5.19 11.612-11.916 11.612-4.762 0-8.35-2.64-10.765-7.357-.586-1.151-.793-1.513-1.302-1.513-.376 0-.695.287-.695.813v14.417A19.999 19.999 0 1 0 20 0z"/>
    </g>
    <path d="M11.334 23.609v14.415A19.873 19.873 0 0 1 9.03 36.72V23.957c0-.79.09-1.566.531-2.231.496-.756 1.28-1.188 2.362-1.188 1.411 0 2.287.756 3.527 3.035 2.337 4.282 5.407 5.811 8.667 5.811 5.439 0 9.603-4.253 9.603-9.354a9.486 9.486 0 0 0-2.832-6.759 9.002 9.002 0 0 0-2.268-1.613 9.665 9.665 0 0 0-2.618-.881c-1.028-.191-2.1-.225-3.443-.225H2.371c.423-.787.898-1.545 1.422-2.269h18.764c1.456 0 2.63.046 3.894.27 1.122.201 2.209.563 3.227 1.074a11.063 11.063 0 0 1 2.832 2.03 11.848 11.848 0 0 1 3.504 8.395c0 6.353-5.19 11.613-11.916 11.613-4.762 0-8.35-2.642-10.765-7.358-.586-1.15-.793-1.513-1.302-1.513-.378 0-.697.287-.697.815zM8.342 20.73c.78-1.14 2.036-1.76 3.593-1.76 1.456 0 2.976.542 4.611 3.452 2.303 4.085 4.638 5.406 7.516 5.406 4.694 0 8.091-3.52 8.091-7.809a7.865 7.865 0 0 0-2.37-5.653 6.87 6.87 0 0 0-1.873-1.309 8.41 8.41 0 0 0-2.202-.734c-.903-.169-1.76-.192-3.149-.192H1.61c-.315.735-.585 1.49-.809 2.257h21.92c1.223 0 1.985.034 2.64.158a5.357 5.357 0 0 1 1.557.53 5.66 5.66 0 0 1 1.331.971 5.472 5.472 0 0 1 1.614 3.927c0 3.07-2.415 5.574-5.62 5.574-2.877 0-4.48-2.008-5.75-4.243-1.834-3.216-3.78-4.603-6.499-4.603-2.202 0-4.21.913-5.473 2.65-1.32 1.819-1.32 3.895-1.32 4.605v9.488c.71.78 1.48 1.503 2.302 2.163V24.003c-.005-.59-.005-2.043.84-3.273z" fill="#243665" fill-rule="nonzero"/>
  </g>
</svg>